# xmcd
# Copyright (C) 1995-1998 Ti Kan
#
# Track frame offsets:
#       150
#       13255
#       26503
#       50387
#       71903
#       93019
#       114870
#       143084
#       163482
#       193024
#
# Disc length: 2796 seconds
#
# Revision: 0
# Processed by: cddbd v1.5.2PL0 Copyright (c) Steve Scherf et al.
# Submitted via: CD-Import v1.0
#
DISCID=850aea0a
DTITLE=Oliver Benz - The Curtain
DYEAR=2008
DGENRE=
TTITLE0=The Regret
TTITLE1=Instrumental
TTITLE2=The Awakening
TTITLE3=The Accusation
TTITLE4=The Curtain
TTITLE5=A Poor Man's Muse
TTITLE6=A Lovesong
TTITLE7=Lullaby
TTITLE8=Brainwashed Child
TTITLE9=Not The End Of The World
EXTD=
EXTT0=
EXTT1=
EXTT2=
EXTT3=
EXTT4=
EXTT5=
EXTT6=
EXTT7=
EXTT8=
EXTT9=
PLAYORDER=
